<svg xmlns="http://www.w3.org/2000/svg" xmlns:xlink="http://www.w3.org/1999/xlink" width="2069" zoomAndPan="magnify" viewBox="0 0 1551.75 1357.499964" height="1810" preserveAspectRatio="xMidYMid meet" version="1.0"><defs><g/><clipPath id="933b15555f"><path d="M 21.359375 30 L 1530 30 L 1530 1356.824219 L 21.359375 1356.824219 Z M 21.359375 30 " clip-rule="nonzero"/></clipPath><clipPath id="9790f9d3b3"><path d="M 801.15625 44.914062 L 1525.152344 1311.910156 C 1530.460938 1321.203125 1530.425781 1332.617188 1525.050781 1341.875 C 1519.679688 1351.128906 1509.789062 1356.824219 1499.085938 1356.824219 L 51.890625 1356.824219 C 41.191406 1356.824219 31.296875 1351.128906 25.925781 1341.875 C 20.554688 1332.617188 20.515625 1321.203125 25.828125 1311.910156 L 749.824219 44.914062 C 755.085938 35.703125 764.882812 30.019531 775.488281 30.019531 C 786.097656 30.019531 795.890625 35.703125 801.15625 44.914062 Z M 801.15625 44.914062 " clip-rule="nonzero"/></clipPath><clipPath id="80d27dcfeb"><path d="M 586.976562 731.910156 L 852.847656 731.910156 L 852.847656 964.207031 L 586.976562 964.207031 Z M 586.976562 731.910156 " clip-rule="nonzero"/></clipPath><clipPath id="bb720ead82"><path d="M 719.71875 731.910156 L 852.457031 964.207031 L 586.976562 964.207031 Z M 719.71875 731.910156 " clip-rule="nonzero"/></clipPath><clipPath id="275a534c1c"><path d="M 633.84375 731.910156 L 899.710938 731.910156 L 899.710938 964.207031 L 633.84375 964.207031 Z M 633.84375 731.910156 " clip-rule="nonzero"/></clipPath><clipPath id="4a2d42cf06"><path d="M 766.582031 731.910156 L 899.320312 964.207031 L 633.84375 964.207031 Z M 766.582031 731.910156 " clip-rule="nonzero"/></clipPath><clipPath id="4dc39f0f6e"><path d="M 657.105469 731.910156 L 922.972656 731.910156 L 922.972656 964.207031 L 657.105469 964.207031 Z M 657.105469 731.910156 " clip-rule="nonzero"/></clipPath><clipPath id="aa83a4956f"><path d="M 789.84375 731.910156 L 922.585938 964.207031 L 657.105469 964.207031 Z M 789.84375 731.910156 " clip-rule="nonzero"/></clipPath><clipPath id="43ad38d836"><path d="M 852.457031 927.054688 L 970.609375 927.054688 L 970.609375 975.449219 L 852.457031 975.449219 Z M 852.457031 927.054688 " clip-rule="nonzero"/></clipPath><clipPath id="fb6c1e9658"><path d="M 864.453125 927.054688 L 958.460938 927.054688 C 961.644531 927.054688 964.695312 928.320312 966.945312 930.566406 C 969.195312 932.816406 970.457031 935.867188 970.457031 939.050781 L 970.457031 963.453125 C 970.457031 966.636719 969.195312 969.6875 966.945312 971.9375 C 964.695312 974.1875 961.644531 975.449219 958.460938 975.449219 L 864.453125 975.449219 C 861.273438 975.449219 858.21875 974.1875 855.972656 971.9375 C 853.722656 969.6875 852.457031 966.636719 852.457031 963.453125 L 852.457031 939.050781 C 852.457031 935.867188 853.722656 932.816406 855.972656 930.566406 C 858.21875 928.320312 861.273438 927.054688 864.453125 927.054688 Z M 864.453125 927.054688 " clip-rule="nonzero"/></clipPath><clipPath id="6ad58a0bc4"><path d="M 775.488281 730.433594 L 992.277344 730.433594 L 992.277344 937.515625 L 775.488281 937.515625 Z M 775.488281 730.433594 " clip-rule="nonzero"/></clipPath><clipPath id="1ba79276e0"><path d="M 787.484375 730.433594 L 980.199219 730.433594 C 983.382812 730.433594 986.433594 731.699219 988.683594 733.949219 C 990.933594 736.199219 992.195312 739.25 992.195312 742.429688 L 992.195312 925.519531 C 992.195312 928.703125 990.933594 931.753906 988.683594 934.003906 C 986.433594 936.253906 983.382812 937.515625 980.199219 937.515625 L 787.484375 937.515625 C 784.304688 937.515625 781.253906 936.253906 779.003906 934.003906 C 776.753906 931.753906 775.488281 928.703125 775.488281 925.519531 L 775.488281 742.429688 C 775.488281 739.25 776.753906 736.199219 779.003906 733.949219 C 781.253906 731.699219 784.304688 730.433594 787.484375 730.433594 Z M 787.484375 730.433594 " clip-rule="nonzero"/></clipPath><clipPath id="1343aa1f00"><path d="M 922.585938 910.824219 L 962.394531 910.824219 L 962.394531 964.320312 L 922.585938 964.320312 Z M 922.585938 910.824219 " clip-rule="nonzero"/></clipPath><clipPath id="5d87c6d42c"><path d="M 934.578125 910.824219 L 950.398438 910.824219 C 953.578125 910.824219 956.628906 912.089844 958.878906 914.339844 C 961.128906 916.589844 962.394531 919.640625 962.394531 922.820312 L 962.394531 952.210938 C 962.394531 955.390625 961.128906 958.441406 958.878906 960.691406 C 956.628906 962.941406 953.578125 964.207031 950.398438 964.207031 L 934.578125 964.207031 C 931.398438 964.207031 928.347656 962.941406 926.097656 960.691406 C 923.847656 958.441406 922.585938 955.390625 922.585938 952.210938 L 922.585938 922.820312 C 922.585938 919.640625 923.847656 916.589844 926.097656 914.339844 C 928.347656 912.089844 931.398438 910.824219 934.578125 910.824219 Z M 934.578125 910.824219 " clip-rule="nonzero"/></clipPath><clipPath id="7873be00fb"><path d="M 806.058594 923.144531 L 863.71875 923.144531 L 863.71875 971.539062 L 806.058594 971.539062 Z M 806.058594 923.144531 " clip-rule="nonzero"/></clipPath><clipPath id="da6daa76a7"><path d="M 818.054688 923.144531 L 851.59375 923.144531 C 854.777344 923.144531 857.828125 924.40625 860.078125 926.65625 C 862.328125 928.90625 863.589844 931.957031 863.589844 935.140625 L 863.589844 959.542969 C 863.589844 962.726562 862.328125 965.777344 860.078125 968.027344 C 857.828125 970.273438 854.777344 971.539062 851.59375 971.539062 L 818.054688 971.539062 C 814.875 971.539062 811.824219 970.273438 809.574219 968.027344 C 807.324219 965.777344 806.058594 962.726562 806.058594 959.542969 L 806.058594 935.140625 C 806.058594 931.957031 807.324219 928.90625 809.574219 926.65625 C 811.824219 924.40625 814.875 923.144531 818.054688 923.144531 Z M 818.054688 923.144531 " clip-rule="nonzero"/></clipPath><clipPath id="184b94d623"><path d="M 814.921875 909.511719 L 854.730469 909.511719 L 854.730469 963 L 814.921875 963 Z M 814.921875 909.511719 " clip-rule="nonzero"/></clipPath><clipPath id="ed07b7ab33"><path d="M 826.917969 909.511719 L 842.734375 909.511719 C 845.914062 909.511719 848.964844 910.773438 851.214844 913.023438 C 853.464844 915.273438 854.730469 918.324219 854.730469 921.507812 L 854.730469 950.894531 C 854.730469 954.074219 853.464844 957.125 851.214844 959.375 C 848.964844 961.625 845.914062 962.890625 842.734375 962.890625 L 826.917969 962.890625 C 823.734375 962.890625 820.683594 961.625 818.433594 959.375 C 816.183594 957.125 814.921875 954.074219 814.921875 950.894531 L 814.921875 921.507812 C 814.921875 918.324219 816.183594 915.273438 818.433594 913.023438 C 820.683594 910.773438 823.734375 909.511719 826.917969 909.511719 Z M 826.917969 909.511719 " clip-rule="nonzero"/></clipPath><clipPath id="62b71f3960"><path d="M 788 730 L 988.921875 730 L 988.921875 923.144531 L 788 923.144531 Z M 788 730 " clip-rule="nonzero"/></clipPath><clipPath id="3586e61348"><path d="M 800.679688 730.433594 L 976.632812 730.433594 C 979.816406 730.433594 982.867188 731.699219 985.117188 733.949219 C 987.367188 736.199219 988.628906 739.25 988.628906 742.429688 L 988.628906 911.148438 C 988.628906 914.328125 987.367188 917.382812 985.117188 919.628906 C 982.867188 921.878906 979.816406 923.144531 976.632812 923.144531 L 800.679688 923.144531 C 797.496094 923.144531 794.445312 921.878906 792.195312 919.628906 C 789.949219 917.382812 788.683594 914.328125 788.683594 911.148438 L 788.683594 742.429688 C 788.683594 739.25 789.949219 736.199219 792.195312 733.949219 C 794.445312 731.699219 797.496094 730.433594 800.679688 730.433594 Z M 800.679688 730.433594 " clip-rule="nonzero"/></clipPath><clipPath id="aa0c53c59e"><path d="M 808.898438 747.324219 L 968.792969 747.324219 L 968.792969 863.941406 L 808.898438 863.941406 Z M 808.898438 747.324219 " clip-rule="nonzero"/></clipPath><clipPath id="b3fd7f20c9"><path d="M 817.894531 747.324219 L 959.46875 747.324219 C 961.855469 747.324219 964.144531 748.269531 965.832031 749.957031 C 967.519531 751.644531 968.46875 753.933594 968.46875 756.320312 L 968.46875 854.945312 C 968.46875 857.332031 967.519531 859.617188 965.832031 861.304688 C 964.144531 862.992188 961.855469 863.941406 959.46875 863.941406 L 817.894531 863.941406 C 815.507812 863.941406 813.21875 862.992188 811.53125 861.304688 C 809.84375 859.617188 808.898438 857.332031 808.898438 854.945312 L 808.898438 756.320312 C 808.898438 753.933594 809.84375 751.644531 811.53125 749.957031 C 813.21875 748.269531 815.507812 747.324219 817.894531 747.324219 Z M 817.894531 747.324219 " clip-rule="nonzero"/></clipPath><clipPath id="e906081628"><path d="M 810.886719 872.152344 L 858.828125 872.152344 L 858.828125 898.261719 L 810.886719 898.261719 Z M 810.886719 872.152344 " clip-rule="nonzero"/></clipPath><clipPath id="04ad94c983"><path d="M 819.886719 872.152344 L 849.765625 872.152344 C 852.152344 872.152344 854.441406 873.097656 856.125 874.785156 C 857.8125 876.472656 858.761719 878.761719 858.761719 881.148438 L 858.761719 889.265625 C 858.761719 891.652344 857.8125 893.941406 856.125 895.628906 C 854.441406 897.316406 852.152344 898.261719 849.765625 898.261719 L 819.886719 898.261719 C 817.5 898.261719 815.210938 897.316406 813.523438 895.628906 C 811.835938 893.941406 810.886719 891.652344 810.886719 889.265625 L 810.886719 881.148438 C 810.886719 878.761719 811.835938 876.472656 813.523438 874.785156 C 815.210938 873.097656 817.5 872.152344 819.886719 872.152344 Z M 819.886719 872.152344 " clip-rule="nonzero"/></clipPath><clipPath id="e616e2f851"><path d="M 922.585938 871.863281 L 970.527344 871.863281 L 970.527344 897.976562 L 922.585938 897.976562 Z M 922.585938 871.863281 " clip-rule="nonzero"/></clipPath><clipPath id="cdbc06f10b"><path d="M 931.582031 871.863281 L 961.460938 871.863281 C 963.847656 871.863281 966.136719 872.808594 967.824219 874.496094 C 969.511719 876.183594 970.457031 878.472656 970.457031 880.859375 L 970.457031 888.980469 C 970.457031 891.363281 969.511719 893.652344 967.824219 895.339844 C 966.136719 897.027344 963.847656 897.976562 961.460938 897.976562 L 931.582031 897.976562 C 929.195312 897.976562 926.90625 897.027344 925.21875 895.339844 C 923.53125 893.652344 922.585938 891.363281 922.585938 888.980469 L 922.585938 880.859375 C 922.585938 878.472656 923.53125 876.183594 925.21875 874.496094 C 926.90625 872.808594 929.195312 871.863281 931.582031 871.863281 Z M 931.582031 871.863281 " clip-rule="nonzero"/></clipPath><clipPath id="605a0c77e0"><path d="M 770.292969 525.128906 L 854.503906 525.128906 L 854.503906 609.339844 L 770.292969 609.339844 Z M 770.292969 525.128906 " clip-rule="nonzero"/></clipPath><clipPath id="8c41c6f5cb"><path d="M 812.398438 525.128906 C 789.144531 525.128906 770.292969 543.980469 770.292969 567.234375 C 770.292969 590.488281 789.144531 609.339844 812.398438 609.339844 C 835.652344 609.339844 854.503906 590.488281 854.503906 567.234375 C 854.503906 543.980469 835.652344 525.128906 812.398438 525.128906 Z M 812.398438 525.128906 " clip-rule="nonzero"/></clipPath></defs><g clip-path="url(#933b15555f)"><g clip-path="url(#9790f9d3b3)"><path fill="#262626" d="M 0.160156 0 L 1553.089844 0 L 1553.089844 1356.824219 L 0.160156 1356.824219 Z M 0.160156 0 " fill-opacity="1" fill-rule="nonzero"/></g></g><g clip-path="url(#80d27dcfeb)"><g clip-path="url(#bb720ead82)"><path fill="#d9d9d9" d="M 586.976562 731.910156 L 852.847656 731.910156 L 852.847656 964.207031 L 586.976562 964.207031 Z M 586.976562 731.910156 " fill-opacity="1" fill-rule="nonzero"/></g></g><g clip-path="url(#275a534c1c)"><g clip-path="url(#4a2d42cf06)"><path fill="#262626" d="M 633.84375 731.910156 L 899.710938 731.910156 L 899.710938 964.207031 L 633.84375 964.207031 Z M 633.84375 731.910156 " fill-opacity="1" fill-rule="nonzero"/></g></g><g clip-path="url(#4dc39f0f6e)"><g clip-path="url(#aa83a4956f)"><path fill="#d9d9d9" d="M 657.105469 731.910156 L 922.972656 731.910156 L 922.972656 964.207031 L 657.105469 964.207031 Z M 657.105469 731.910156 " fill-opacity="1" fill-rule="nonzero"/></g></g><g clip-path="url(#43ad38d836)"><g clip-path="url(#fb6c1e9658)"><path fill="#262626" d="M 852.457031 927.054688 L 970.421875 927.054688 L 970.421875 975.449219 L 852.457031 975.449219 Z M 852.457031 927.054688 " fill-opacity="1" fill-rule="nonzero"/></g></g><g clip-path="url(#6ad58a0bc4)"><g clip-path="url(#1ba79276e0)"><path fill="#262626" d="M 775.488281 730.433594 L 992.277344 730.433594 L 992.277344 937.515625 L 775.488281 937.515625 Z M 775.488281 730.433594 " fill-opacity="1" fill-rule="nonzero"/></g></g><g clip-path="url(#1343aa1f00)"><g clip-path="url(#5d87c6d42c)"><path fill="#737373" d="M 922.585938 910.824219 L 962.394531 910.824219 L 962.394531 964.164062 L 922.585938 964.164062 Z M 922.585938 910.824219 " fill-opacity="1" fill-rule="nonzero"/></g></g><g clip-path="url(#7873be00fb)"><g clip-path="url(#da6daa76a7)"><path fill="#262626" d="M 806.058594 923.144531 L 863.53125 923.144531 L 863.53125 971.539062 L 806.058594 971.539062 Z M 806.058594 923.144531 " fill-opacity="1" fill-rule="nonzero"/></g></g><g clip-path="url(#184b94d623)"><g clip-path="url(#ed07b7ab33)"><path fill="#737373" d="M 814.921875 909.511719 L 854.730469 909.511719 L 854.730469 962.847656 L 814.921875 962.847656 Z M 814.921875 909.511719 " fill-opacity="1" fill-rule="nonzero"/></g></g><g clip-path="url(#62b71f3960)"><g clip-path="url(#3586e61348)"><path fill="#d9d9d9" d="M 788.683594 730.433594 L 988.921875 730.433594 L 988.921875 923.144531 L 788.683594 923.144531 Z M 788.683594 730.433594 " fill-opacity="1" fill-rule="nonzero"/></g></g><g clip-path="url(#aa0c53c59e)"><g clip-path="url(#b3fd7f20c9)"><path fill="#262626" d="M 808.898438 747.324219 L 968.335938 747.324219 L 968.335938 863.941406 L 808.898438 863.941406 Z M 808.898438 747.324219 " fill-opacity="1" fill-rule="nonzero"/></g></g><g clip-path="url(#e906081628)"><g clip-path="url(#04ad94c983)"><path fill="#262626" d="M 810.886719 872.152344 L 858.726562 872.152344 L 858.726562 898.261719 L 810.886719 898.261719 Z M 810.886719 872.152344 " fill-opacity="1" fill-rule="nonzero"/></g></g><g clip-path="url(#e616e2f851)"><g clip-path="url(#cdbc06f10b)"><path fill="#262626" d="M 922.585938 871.863281 L 970.425781 871.863281 L 970.425781 897.976562 L 922.585938 897.976562 Z M 922.585938 871.863281 " fill-opacity="1" fill-rule="nonzero"/></g></g><g clip-path="url(#605a0c77e0)"><g clip-path="url(#8c41c6f5cb)"><path fill="#262626" d="M 770.292969 525.128906 L 854.503906 525.128906 L 854.503906 609.339844 L 770.292969 609.339844 Z M 770.292969 525.128906 " fill-opacity="1" fill-rule="nonzero"/></g></g><g fill="#d9d9d9" fill-opacity="1"><g transform="translate(701.48115, 665.491724)"><g><path d="M 63.921875 -82.359375 C 63.921875 -99.546875 66.007812 -113.238281 70.1875 -123.4375 C 74.363281 -133.632812 82.007812 -143.675781 93.125 -153.5625 C 104.238281 -163.445312 111.640625 -171.488281 115.328125 -177.6875 C 119.015625 -183.894531 120.859375 -190.4375 120.859375 -197.3125 C 120.859375 -218.070312 111.28125 -228.453125 92.125 -228.453125 C 83.03125 -228.453125 75.75 -225.65625 70.28125 -220.0625 C 64.820312 -214.476562 61.96875 -206.773438 61.71875 -196.953125 L 8.296875 -196.953125 C 8.535156 -220.410156 16.113281 -238.769531 31.03125 -252.03125 C 45.957031 -265.300781 66.320312 -271.9375 92.125 -271.9375 C 118.15625 -271.9375 138.351562 -265.640625 152.71875 -253.046875 C 167.09375 -240.453125 174.28125 -222.671875 174.28125 -199.703125 C 174.28125 -189.265625 171.945312 -179.410156 167.28125 -170.140625 C 162.613281 -160.867188 154.445312 -150.582031 142.78125 -139.28125 L 127.859375 -125.09375 C 118.523438 -116.125 113.179688 -105.625 111.828125 -93.59375 L 111.09375 -82.359375 Z M 58.59375 -25.796875 C 58.59375 -34.023438 61.382812 -40.8125 66.96875 -46.15625 C 72.5625 -51.5 79.71875 -54.171875 88.4375 -54.171875 C 97.15625 -54.171875 104.304688 -51.5 109.890625 -46.15625 C 115.484375 -40.8125 118.28125 -34.023438 118.28125 -25.796875 C 118.28125 -17.691406 115.546875 -11 110.078125 -5.71875 C 104.609375 -0.4375 97.390625 2.203125 88.421875 2.203125 C 79.460938 2.203125 72.25 -0.4375 66.78125 -5.71875 C 61.320312 -11 58.59375 -17.691406 58.59375 -25.796875 Z M 58.59375 -25.796875 "/></g></g></g><g fill="#d9d9d9" fill-opacity="1"><g transform="translate(312.687167, 1208.518871)"><g><path d="M 13.765625 0 L 13.765625 -63.046875 L 2.109375 -63.046875 L 2.109375 -78.421875 L 13.765625 -78.421875 L 13.765625 -85.078125 C 13.765625 -93.867188 16.289062 -100.691406 21.34375 -105.546875 C 26.394531 -110.410156 33.460938 -112.84375 42.546875 -112.84375 C 45.441406 -112.84375 48.988281 -112.359375 53.1875 -111.390625 L 52.984375 -95.15625 C 51.242188 -95.59375 49.113281 -95.8125 46.59375 -95.8125 C 38.71875 -95.8125 34.78125 -92.113281 34.78125 -84.71875 L 34.78125 -78.421875 L 50.375 -78.421875 L 50.375 -63.046875 L 34.78125 -63.046875 L 34.78125 0 Z M 13.765625 0 "/></g></g><g transform="translate(365.883635, 1208.518871)"><g><path d="M 4.78125 -39.9375 C 4.78125 -47.707031 6.273438 -54.632812 9.265625 -60.71875 C 12.265625 -66.8125 16.578125 -71.523438 22.203125 -74.859375 C 27.835938 -78.191406 34.375 -79.859375 41.8125 -79.859375 C 52.394531 -79.859375 61.03125 -76.617188 67.71875 -70.140625 C 74.414062 -63.671875 78.148438 -54.878906 78.921875 -43.765625 L 79.0625 -38.40625 C 79.0625 -26.375 75.703125 -16.722656 68.984375 -9.453125 C 62.273438 -2.179688 53.265625 1.453125 41.953125 1.453125 C 30.648438 1.453125 21.628906 -2.171875 14.890625 -9.421875 C 8.148438 -16.671875 4.78125 -26.523438 4.78125 -38.984375 Z M 25.734375 -38.40625 C 25.734375 -30.96875 27.132812 -25.28125 29.9375 -21.34375 C 32.738281 -17.40625 36.75 -15.4375 41.96875 -15.4375 C 47.039062 -15.4375 51 -17.378906 53.84375 -21.265625 C 56.695312 -25.160156 58.125 -31.382812 58.125 -39.9375 C 58.125 -47.226562 56.695312 -52.878906 53.84375 -56.890625 C 51 -60.898438 46.988281 -62.90625 41.8125 -62.90625 C 36.695312 -62.90625 32.738281 -60.910156 29.9375 -56.921875 C 27.132812 -52.941406 25.734375 -46.769531 25.734375 -38.40625 Z M 25.734375 -38.40625 "/></g></g><g transform="translate(449.809398, 1208.518871)"><g><path d="M 52.109375 -58.78125 C 49.253906 -59.164062 46.738281 -59.359375 44.5625 -59.359375 C 36.644531 -59.359375 31.453125 -56.675781 28.984375 -51.3125 L 28.984375 0 L 8.046875 0 L 8.046875 -78.421875 L 27.828125 -78.421875 L 28.40625 -69.0625 C 32.613281 -76.257812 38.4375 -79.859375 45.875 -79.859375 C 48.195312 -79.859375 50.367188 -79.546875 52.390625 -78.921875 Z M 52.109375 -58.78125 "/></g></g><g transform="translate(503.948038, 1208.518871)"><g><path d="M 53.484375 0 C 52.515625 -1.882812 51.8125 -4.226562 51.375 -7.03125 C 46.300781 -1.375 39.707031 1.453125 31.59375 1.453125 C 23.914062 1.453125 17.550781 -0.769531 12.5 -5.21875 C 7.445312 -9.664062 4.921875 -15.269531 4.921875 -22.03125 C 4.921875 -30.34375 8 -36.71875 14.15625 -41.15625 C 20.320312 -45.601562 29.226562 -47.851562 40.875 -47.90625 L 50.515625 -47.90625 L 50.515625 -52.390625 C 50.515625 -56.015625 49.582031 -58.914062 47.71875 -61.09375 C 45.863281 -63.269531 42.929688 -64.359375 38.921875 -64.359375 C 35.390625 -64.359375 32.617188 -63.507812 30.609375 -61.8125 C 28.609375 -60.125 27.609375 -57.804688 27.609375 -54.859375 L 6.671875 -54.859375 C 6.671875 -59.398438 8.070312 -63.601562 10.875 -67.46875 C 13.675781 -71.332031 17.632812 -74.363281 22.75 -76.5625 C 27.875 -78.757812 33.625 -79.859375 40 -79.859375 C 49.664062 -79.859375 57.335938 -77.429688 63.015625 -72.578125 C 68.691406 -67.722656 71.53125 -60.898438 71.53125 -52.109375 L 71.53125 -18.125 C 71.582031 -10.675781 72.617188 -5.046875 74.640625 -1.234375 L 74.640625 0 Z M 36.15625 -14.5625 C 39.25 -14.5625 42.097656 -15.25 44.703125 -16.625 C 47.316406 -18.007812 49.253906 -19.859375 50.515625 -22.171875 L 50.515625 -35.65625 L 42.6875 -35.65625 C 32.195312 -35.65625 26.613281 -32.03125 25.9375 -24.78125 L 25.875 -23.546875 C 25.875 -20.941406 26.789062 -18.789062 28.625 -17.09375 C 30.457031 -15.40625 32.96875 -14.5625 36.15625 -14.5625 Z M 36.15625 -14.5625 "/></g></g><g transform="translate(583.525315, 1208.518871)"><g/></g><g transform="translate(620.487439, 1208.518871)"><g><path d="M 4.78125 -39.78125 C 4.78125 -52.007812 7.519531 -61.742188 13 -68.984375 C 18.488281 -76.234375 25.992188 -79.859375 35.515625 -79.859375 C 43.148438 -79.859375 49.453125 -77.007812 54.421875 -71.3125 L 54.421875 -111.3125 L 75.4375 -111.3125 L 75.4375 0 L 56.53125 0 L 55.515625 -8.328125 C 50.296875 -1.804688 43.578125 1.453125 35.359375 1.453125 C 26.140625 1.453125 18.738281 -2.179688 13.15625 -9.453125 C 7.570312 -16.722656 4.78125 -26.832031 4.78125 -39.78125 Z M 25.734375 -38.265625 C 25.734375 -30.921875 27.007812 -25.289062 29.5625 -21.375 C 32.125 -17.46875 35.847656 -15.515625 40.734375 -15.515625 C 47.203125 -15.515625 51.765625 -18.242188 54.421875 -23.703125 L 54.421875 -54.640625 C 51.816406 -60.097656 47.300781 -62.828125 40.875 -62.828125 C 30.78125 -62.828125 25.734375 -54.640625 25.734375 -38.265625 Z M 25.734375 -38.265625 "/></g></g><g transform="translate(704.123302, 1208.518871)"><g><path d="M 44.140625 1.453125 C 32.640625 1.453125 23.273438 -2.070312 16.046875 -9.125 C 8.828125 -16.1875 5.21875 -25.585938 5.21875 -37.328125 L 5.21875 -39.359375 C 5.21875 -47.234375 6.738281 -54.273438 9.78125 -60.484375 C 12.820312 -66.691406 17.132812 -71.472656 22.71875 -74.828125 C 28.300781 -78.179688 34.664062 -79.859375 41.8125 -79.859375 C 52.539062 -79.859375 60.984375 -76.476562 67.140625 -69.71875 C 73.304688 -62.957031 76.390625 -53.367188 76.390625 -40.953125 L 76.390625 -32.390625 L 26.453125 -32.390625 C 27.128906 -27.273438 29.171875 -23.171875 32.578125 -20.078125 C 35.984375 -16.984375 40.296875 -15.4375 45.515625 -15.4375 C 53.578125 -15.4375 59.878906 -18.359375 64.421875 -24.203125 L 74.71875 -12.6875 C 71.570312 -8.238281 67.316406 -4.769531 61.953125 -2.28125 C 56.597656 0.207031 50.660156 1.453125 44.140625 1.453125 Z M 41.75 -62.90625 C 37.59375 -62.90625 34.21875 -61.503906 31.625 -58.703125 C 29.039062 -55.898438 27.390625 -51.890625 26.671875 -46.671875 L 55.796875 -46.671875 L 55.796875 -48.34375 C 55.703125 -52.976562 54.445312 -56.5625 52.03125 -59.09375 C 49.613281 -61.632812 46.1875 -62.90625 41.75 -62.90625 Z M 41.75 -62.90625 "/></g></g><g transform="translate(784.352852, 1208.518871)"><g/></g><g transform="translate(821.314976, 1208.518871)"><g><path d="M 28.484375 -69.859375 C 34.035156 -76.523438 41.015625 -79.859375 49.421875 -79.859375 C 66.429688 -79.859375 75.054688 -69.976562 75.296875 -50.21875 L 75.296875 0 L 54.359375 0 L 54.359375 -49.640625 C 54.359375 -54.140625 53.390625 -57.460938 51.453125 -59.609375 C 49.523438 -61.753906 46.3125 -62.828125 41.8125 -62.828125 C 35.675781 -62.828125 31.234375 -60.460938 28.484375 -55.734375 L 28.484375 0 L 7.53125 0 L 7.53125 -111.3125 L 28.484375 -111.3125 Z M 28.484375 -69.859375 "/></g></g><g transform="translate(904.371041, 1208.518871)"><g><path d="M 4.78125 -39.9375 C 4.78125 -47.707031 6.273438 -54.632812 9.265625 -60.71875 C 12.265625 -66.8125 16.578125 -71.523438 22.203125 -74.859375 C 27.835938 -78.191406 34.375 -79.859375 41.8125 -79.859375 C 52.394531 -79.859375 61.03125 -76.617188 67.71875 -70.140625 C 74.414062 -63.671875 78.148438 -54.878906 78.921875 -43.765625 L 79.0625 -38.40625 C 79.0625 -26.375 75.703125 -16.722656 68.984375 -9.453125 C 62.273438 -2.179688 53.265625 1.453125 41.953125 1.453125 C 30.648438 1.453125 21.628906 -2.171875 14.890625 -9.421875 C 8.148438 -16.671875 4.78125 -26.523438 4.78125 -38.984375 Z M 25.734375 -38.40625 C 25.734375 -30.96875 27.132812 -25.28125 29.9375 -21.34375 C 32.738281 -17.40625 36.75 -15.4375 41.96875 -15.4375 C 47.039062 -15.4375 51 -17.378906 53.84375 -21.265625 C 56.695312 -25.160156 58.125 -31.382812 58.125 -39.9375 C 58.125 -47.226562 56.695312 -52.878906 53.84375 -56.890625 C 51 -60.898438 46.988281 -62.90625 41.8125 -62.90625 C 36.695312 -62.90625 32.738281 -60.910156 29.9375 -56.921875 C 27.132812 -52.941406 25.734375 -46.769531 25.734375 -38.40625 Z M 25.734375 -38.40625 "/></g></g><g transform="translate(988.296804, 1208.518871)"><g><path d="M 52.109375 -58.78125 C 49.253906 -59.164062 46.738281 -59.359375 44.5625 -59.359375 C 36.644531 -59.359375 31.453125 -56.675781 28.984375 -51.3125 L 28.984375 0 L 8.046875 0 L 8.046875 -78.421875 L 27.828125 -78.421875 L 28.40625 -69.0625 C 32.613281 -76.257812 38.4375 -79.859375 45.875 -79.859375 C 48.195312 -79.859375 50.367188 -79.546875 52.390625 -78.921875 Z M 52.109375 -58.78125 "/></g></g><g transform="translate(1042.435443, 1208.518871)"><g><path d="M 53.484375 0 C 52.515625 -1.882812 51.8125 -4.226562 51.375 -7.03125 C 46.300781 -1.375 39.707031 1.453125 31.59375 1.453125 C 23.914062 1.453125 17.550781 -0.769531 12.5 -5.21875 C 7.445312 -9.664062 4.921875 -15.269531 4.921875 -22.03125 C 4.921875 -30.34375 8 -36.71875 14.15625 -41.15625 C 20.320312 -45.601562 29.226562 -47.851562 40.875 -47.90625 L 50.515625 -47.90625 L 50.515625 -52.390625 C 50.515625 -56.015625 49.582031 -58.914062 47.71875 -61.09375 C 45.863281 -63.269531 42.929688 -64.359375 38.921875 -64.359375 C 35.390625 -64.359375 32.617188 -63.507812 30.609375 -61.8125 C 28.609375 -60.125 27.609375 -57.804688 27.609375 -54.859375 L 6.671875 -54.859375 C 6.671875 -59.398438 8.070312 -63.601562 10.875 -67.46875 C 13.675781 -71.332031 17.632812 -74.363281 22.75 -76.5625 C 27.875 -78.757812 33.625 -79.859375 40 -79.859375 C 49.664062 -79.859375 57.335938 -77.429688 63.015625 -72.578125 C 68.691406 -67.722656 71.53125 -60.898438 71.53125 -52.109375 L 71.53125 -18.125 C 71.582031 -10.675781 72.617188 -5.046875 74.640625 -1.234375 L 74.640625 0 Z M 36.15625 -14.5625 C 39.25 -14.5625 42.097656 -15.25 44.703125 -16.625 C 47.316406 -18.007812 49.253906 -19.859375 50.515625 -22.171875 L 50.515625 -35.65625 L 42.6875 -35.65625 C 32.195312 -35.65625 26.613281 -32.03125 25.9375 -24.78125 L 25.875 -23.546875 C 25.875 -20.941406 26.789062 -18.789062 28.625 -17.09375 C 30.457031 -15.40625 32.96875 -14.5625 36.15625 -14.5625 Z M 36.15625 -14.5625 "/></g></g><g transform="translate(1122.01272, 1208.518871)"><g><path d="M 52.109375 -58.78125 C 49.253906 -59.164062 46.738281 -59.359375 44.5625 -59.359375 C 36.644531 -59.359375 31.453125 -56.675781 28.984375 -51.3125 L 28.984375 0 L 8.046875 0 L 8.046875 -78.421875 L 27.828125 -78.421875 L 28.40625 -69.0625 C 32.613281 -76.257812 38.4375 -79.859375 45.875 -79.859375 C 48.195312 -79.859375 50.367188 -79.546875 52.390625 -78.921875 Z M 52.109375 -58.78125 "/></g></g><g transform="translate(1176.151359, 1208.518871)"><g><path d="M 30.140625 0 L 9.125 0 L 9.125 -78.421875 L 30.140625 -78.421875 Z M 7.90625 -98.703125 C 7.90625 -101.847656 8.953125 -104.429688 11.046875 -106.453125 C 13.148438 -108.484375 16.015625 -109.5 19.640625 -109.5 C 23.210938 -109.5 26.0625 -108.484375 28.1875 -106.453125 C 30.3125 -104.429688 31.375 -101.847656 31.375 -98.703125 C 31.375 -95.515625 30.300781 -92.90625 28.15625 -90.875 C 26.007812 -88.84375 23.171875 -87.828125 19.640625 -87.828125 C 16.109375 -87.828125 13.269531 -88.84375 11.125 -90.875 C 8.976562 -92.90625 7.90625 -95.515625 7.90625 -98.703125 Z M 7.90625 -98.703125 "/></g></g><g transform="translate(1215.50515, 1208.518871)"><g><path d="M 4.78125 -39.9375 C 4.78125 -47.707031 6.273438 -54.632812 9.265625 -60.71875 C 12.265625 -66.8125 16.578125 -71.523438 22.203125 -74.859375 C 27.835938 -78.191406 34.375 -79.859375 41.8125 -79.859375 C 52.394531 -79.859375 61.03125 -76.617188 67.71875 -70.140625 C 74.414062 -63.671875 78.148438 -54.878906 78.921875 -43.765625 L 79.0625 -38.40625 C 79.0625 -26.375 75.703125 -16.722656 68.984375 -9.453125 C 62.273438 -2.179688 53.265625 1.453125 41.953125 1.453125 C 30.648438 1.453125 21.628906 -2.171875 14.890625 -9.421875 C 8.148438 -16.671875 4.78125 -26.523438 4.78125 -38.984375 Z M 25.734375 -38.40625 C 25.734375 -30.96875 27.132812 -25.28125 29.9375 -21.34375 C 32.738281 -17.40625 36.75 -15.4375 41.96875 -15.4375 C 47.039062 -15.4375 51 -17.378906 53.84375 -21.265625 C 56.695312 -25.160156 58.125 -31.382812 58.125 -39.9375 C 58.125 -47.226562 56.695312 -52.878906 53.84375 -56.890625 C 51 -60.898438 46.988281 -62.90625 41.8125 -62.90625 C 36.695312 -62.90625 32.738281 -60.910156 29.9375 -56.921875 C 27.132812 -52.941406 25.734375 -46.769531 25.734375 -38.40625 Z M 25.734375 -38.40625 "/></g></g></g></svg>